<svg width="377" height="178" viewBox="0 0 377 178" fill="none" xmlns="http://www.w3.org/2000/svg">
<path d="M207.606 23.7728H215.245C219.824 23.7728 227.571 23.665 232.15 23.665C248.019 23.665 259.96 32.9788 259.96 45.4266C259.96 57.8744 247.802 67.2861 231.607 67.2861C227.018 67.2861 219.824 67.0706 215.245 67.0706H207.606V23.7728ZM231.607 60.0877C243.449 60.0877 252.272 53.81 252.272 45.3972C252.272 36.9844 243.657 30.834 232.15 30.834C225.113 30.834 217.86 30.9418 215.245 31.0495V59.7351C219.932 59.9016 226.89 60.0877 231.607 60.0877Z" fill="white"/>
<path d="M264.875 56.4665C264.875 50.081 272.77 45.3212 283.142 45.3212C291.106 45.3212 299.721 48.3279 303.323 50.081V47.6718C303.323 44.1069 295.853 41.4528 285.925 41.4528C278.731 41.4528 272.592 42.6574 267.924 44.9687V37.4667C273.707 35.4358 279.791 34.3766 285.925 34.3328C300.106 34.3328 310.745 40.0131 310.745 47.6424V67.073H303.323V62.8422C299.721 64.6442 291.106 68.1405 283.142 68.1405C272.73 68.1601 264.875 62.8421 264.875 56.4665ZM283.142 61.1185C290.107 60.8633 296.958 59.2841 303.323 56.4665C296.905 53.8858 290.065 52.4918 283.142 52.3531C277.083 52.3531 272.563 54.1552 272.563 56.4665C272.563 58.7778 277.092 61.1185 283.142 61.1185Z" fill="white"/>
<path d="M335.967 67.0719L315.045 35.6831H323.059L340.082 61.1467L356.326 35.6831H364.349L337.408 77.5315H329.444L335.967 67.0719Z" fill="white"/>
<path d="M112.956 60.3927L143.479 43.2538H114.012V36.6332H155.943V43.2538L125.43 60.3927H156.476V67.0132H112.956V60.3927ZM168.22 67.0132H161.144V25.0669H168.22V46.0352L188.826 36.5941H201.507L177.092 48.9145L202.603 66.9936H192.339L170.865 52.0681L168.23 53.3804L168.22 67.0132Z" fill="white"/>
<path d="M0.00341797 135.514H376.928V177.3H0.00341797V135.514Z" fill="white"/>
<path fill-rule="evenodd" clip-rule="evenodd" d="M374.416 138.027H2.51621V174.787H374.416V138.027ZM0.00341797 135.514V177.3H376.928V135.514H0.00341797Z" fill="white"/>
<path d="M60.5184 163.421V151.231H55.7026V149.104H67.8037V151.231H62.988V163.421H60.5184Z" fill="black"/>
<path d="M71.6528 163.421V149.104H74.1224V155.117H81.2843V149.104H83.7539V163.421H81.2843V157.305H74.1224V163.421H71.6528Z" fill="black"/>
<path d="M88.8254 163.421V149.104H99.136V151.19H91.295V155.178H96.7693V157.223H91.295V161.335H99.2183V163.421H88.8254Z" fill="black"/>
<path d="M110.062 163.421V149.104H113.273L117.491 157.796L121.69 149.104H124.9V163.421H122.575V152.212L117.471 162.398L112.346 152.151V163.421H110.062Z" fill="black"/>
<path d="M136.693 163.646C135.677 163.646 134.724 163.462 133.832 163.093C132.954 162.712 132.179 162.187 131.507 161.519C130.848 160.837 130.334 160.053 129.963 159.167C129.593 158.267 129.407 157.298 129.407 156.262C129.407 155.226 129.593 154.265 129.963 153.378C130.334 152.478 130.848 151.694 131.507 151.026C132.179 150.344 132.954 149.819 133.832 149.451C134.724 149.07 135.677 148.879 136.693 148.879C137.708 148.879 138.655 149.07 139.533 149.451C140.425 149.819 141.2 150.344 141.858 151.026C142.531 151.694 143.052 152.478 143.422 153.378C143.793 154.265 143.978 155.226 143.978 156.262C143.978 157.298 143.793 158.267 143.422 159.167C143.052 160.053 142.531 160.837 141.858 161.519C141.2 162.187 140.425 162.712 139.533 163.093C138.655 163.462 137.708 163.646 136.693 163.646ZM136.693 161.437C137.365 161.437 137.989 161.307 138.566 161.048C139.142 160.789 139.643 160.428 140.068 159.964C140.507 159.487 140.843 158.935 141.076 158.307C141.323 157.68 141.447 156.998 141.447 156.262C141.447 155.526 141.323 154.844 141.076 154.217C140.843 153.59 140.507 153.044 140.068 152.581C139.643 152.103 139.142 151.735 138.566 151.476C137.989 151.217 137.365 151.088 136.693 151.088C136.02 151.088 135.396 151.217 134.82 151.476C134.244 151.735 133.736 152.103 133.297 152.581C132.858 153.044 132.515 153.59 132.268 154.217C132.035 154.844 131.918 155.526 131.918 156.262C131.918 156.998 132.035 157.68 132.268 158.307C132.515 158.935 132.858 159.487 133.297 159.964C133.736 160.428 134.244 160.789 134.82 161.048C135.396 161.307 136.02 161.437 136.693 161.437Z" fill="black"/>
<path d="M150.952 161.294H153.812C154.677 161.294 155.459 161.075 156.159 160.639C156.858 160.189 157.414 159.582 157.826 158.819C158.237 158.055 158.443 157.203 158.443 156.262C158.443 155.308 158.237 154.456 157.826 153.706C157.414 152.942 156.858 152.342 156.159 151.906C155.459 151.456 154.677 151.231 153.812 151.231H150.952V161.294ZM148.482 163.421V149.104H153.751C154.793 149.104 155.754 149.288 156.632 149.656C157.51 150.024 158.271 150.535 158.916 151.19C159.575 151.831 160.083 152.587 160.439 153.46C160.796 154.319 160.974 155.253 160.974 156.262C160.974 157.271 160.796 158.212 160.439 159.085C160.083 159.944 159.575 160.7 158.916 161.355C158.271 161.996 157.51 162.5 156.632 162.868C155.754 163.237 154.793 163.421 153.751 163.421H148.482Z" fill="black"/>
<path d="M171.234 163.646C170.013 163.646 168.943 163.387 168.023 162.868C167.118 162.35 166.418 161.614 165.924 160.66C165.43 159.705 165.183 158.58 165.183 157.285V149.104H167.653V157.285C167.653 158.13 167.797 158.86 168.085 159.473C168.387 160.087 168.805 160.571 169.341 160.925C169.876 161.266 170.507 161.437 171.234 161.437C171.961 161.437 172.592 161.266 173.127 160.925C173.676 160.571 174.095 160.087 174.383 159.473C174.671 158.86 174.815 158.13 174.815 157.285V149.104H177.284V157.285C177.284 158.58 177.038 159.705 176.544 160.66C176.063 161.614 175.371 162.35 174.465 162.868C173.559 163.387 172.482 163.646 171.234 163.646Z" fill="black"/>
<path d="M182.159 163.421V149.104H184.629V161.294H192.305V163.421H182.159Z" fill="black"/>
<path d="M195.473 163.421L201.133 149.104H203.993L209.571 163.421H206.916L205.434 159.412H199.528L198.046 163.421H195.473ZM200.248 157.489H204.755L202.491 151.435L200.248 157.489Z" fill="black"/>
<path d="M213.143 163.421V149.104H219.544C220.49 149.104 221.327 149.288 222.055 149.656C222.782 150.024 223.344 150.535 223.742 151.19C224.154 151.831 224.36 152.581 224.36 153.44C224.36 154.367 224.099 155.178 223.577 155.874C223.07 156.555 222.377 157.053 221.499 157.367L224.545 163.421H221.808L219.029 157.694H215.613V163.421H213.143ZM215.613 155.73H219.317C220.086 155.73 220.703 155.526 221.17 155.117C221.636 154.694 221.869 154.142 221.869 153.46C221.869 152.765 221.636 152.212 221.17 151.803C220.703 151.381 220.086 151.169 219.317 151.169H215.613V155.73Z" fill="black"/>
<path d="M235.023 163.421V149.104H245.334V151.19H237.493V155.178H242.967V157.223H237.493V161.335H245.416V163.421H235.023Z" fill="black"/>
<path d="M252.392 161.294H255.252C256.117 161.294 256.899 161.075 257.599 160.639C258.298 160.189 258.854 159.582 259.266 158.819C259.677 158.055 259.883 157.203 259.883 156.262C259.883 155.308 259.677 154.456 259.266 153.706C258.854 152.942 258.298 152.342 257.599 151.906C256.899 151.456 256.117 151.231 255.252 151.231H252.392V161.294ZM249.922 163.421V149.104H255.191C256.233 149.104 257.194 149.288 258.072 149.656C258.95 150.024 259.712 150.535 260.356 151.19C261.015 151.831 261.523 152.587 261.879 153.46C262.236 154.319 262.414 155.253 262.414 156.262C262.414 157.271 262.236 158.212 261.879 159.085C261.523 159.944 261.015 160.7 260.356 161.355C259.712 161.996 258.95 162.5 258.072 162.868C257.194 163.237 256.233 163.421 255.191 163.421H249.922Z" fill="black"/>
<path d="M266.809 163.421V149.104H269.278V163.421H266.809Z" fill="black"/>
<path d="M277.956 163.421V151.231H273.14V149.104H285.241V151.231H280.426V163.421H277.956Z" fill="black"/>
<path d="M289.09 163.421V149.104H291.56V163.421H289.09Z" fill="black"/>
<path d="M303.263 163.646C302.248 163.646 301.294 163.462 300.402 163.093C299.524 162.712 298.749 162.187 298.077 161.519C297.418 160.837 296.904 160.053 296.533 159.167C296.163 158.267 295.978 157.298 295.978 156.262C295.978 155.226 296.163 154.265 296.533 153.378C296.904 152.478 297.418 151.694 298.077 151.026C298.749 150.344 299.524 149.819 300.402 149.451C301.294 149.07 302.248 148.879 303.263 148.879C304.278 148.879 305.225 149.07 306.103 149.451C306.995 149.819 307.77 150.344 308.429 151.026C309.101 151.694 309.622 152.478 309.993 153.378C310.363 154.265 310.548 155.226 310.548 156.262C310.548 157.298 310.363 158.267 309.993 159.167C309.622 160.053 309.101 160.837 308.429 161.519C307.77 162.187 306.995 162.712 306.103 163.093C305.225 163.462 304.278 163.646 303.263 163.646ZM303.263 161.437C303.935 161.437 304.559 161.307 305.136 161.048C305.712 160.789 306.213 160.428 306.638 159.964C307.077 159.487 307.413 158.935 307.646 158.307C307.893 157.68 308.017 156.998 308.017 156.262C308.017 155.526 307.893 154.844 307.646 154.217C307.413 153.59 307.077 153.044 306.638 152.581C306.213 152.103 305.712 151.735 305.136 151.476C304.559 151.217 303.935 151.088 303.263 151.088C302.591 151.088 301.966 151.217 301.39 151.476C300.814 151.735 300.306 152.103 299.867 152.581C299.428 153.044 299.085 153.59 298.838 154.217C298.605 154.844 298.488 155.526 298.488 156.262C298.488 156.998 298.605 157.68 298.838 158.307C299.085 158.935 299.428 159.487 299.867 159.964C300.306 160.428 300.814 160.789 301.39 161.048C301.966 161.307 302.591 161.437 303.263 161.437Z" fill="black"/>
<path d="M315.052 163.421V149.104H317.46L324.972 159.514L324.931 149.104H327.256V163.421H325.054L317.337 152.724L317.378 163.421H315.052Z" fill="black"/>
<path d="M31.9635 123.613C30.7447 123.613 29.5927 123.406 28.5077 122.993C27.4375 122.564 26.4045 121.937 25.4087 121.109L26.8579 119.159C27.8686 119.972 28.7678 120.555 29.5556 120.91C30.3582 121.25 31.2129 121.42 32.1195 121.42C32.8032 121.42 33.4052 121.316 33.9254 121.109C34.4605 120.888 34.8692 120.592 35.1517 120.223C35.4489 119.854 35.5976 119.425 35.5976 118.938C35.5976 118.303 35.382 117.823 34.951 117.498C34.5348 117.158 33.8065 116.899 32.7661 116.722L29.89 116.235C28.5374 115.998 27.5267 115.548 26.8579 114.883C26.2039 114.204 25.8769 113.339 25.8769 112.291C25.8769 111.36 26.1147 110.548 26.5903 109.853C27.066 109.144 27.7274 108.598 28.5746 108.214C29.4367 107.815 30.4548 107.615 31.629 107.615C32.8032 107.615 33.918 107.785 34.9733 108.125C36.0286 108.465 37.0021 108.96 37.894 109.61L36.5339 111.604C35.7462 111.013 34.9361 110.57 34.1038 110.274C33.2714 109.964 32.4168 109.809 31.5398 109.809C30.9156 109.809 30.3656 109.905 29.89 110.097C29.4292 110.289 29.0651 110.555 28.7975 110.895C28.5449 111.235 28.4185 111.611 28.4185 112.025C28.4185 112.586 28.6043 113.022 28.9759 113.332C29.3624 113.628 29.9792 113.849 30.8264 113.997L33.6133 114.462C35.1888 114.743 36.3482 115.23 37.0913 115.924C37.8494 116.619 38.2284 117.557 38.2284 118.738C38.2284 119.684 37.9608 120.526 37.4258 121.264C36.9055 122.003 36.1772 122.579 35.2408 122.993C34.3044 123.406 33.212 123.613 31.9635 123.613Z" fill="white"/>
<path d="M42.5456 123.369V107.859H45.2211V123.369H42.5456Z" fill="white"/>
<path d="M50.5773 123.369V107.859H53.1858L61.3236 119.137L61.279 107.859H63.7983V123.369H61.4127L53.0521 111.781L53.0967 123.369H50.5773Z" fill="white"/>
<path d="M76.5436 123.613C75.414 123.613 74.3662 123.406 73.4 122.993C72.4339 122.579 71.5793 122.01 70.8361 121.287C70.1078 120.548 69.5355 119.699 69.1194 118.738C68.7181 117.764 68.5174 116.722 68.5174 115.614C68.5174 114.506 68.7181 113.472 69.1194 112.512C69.5355 111.537 70.1078 110.688 70.8361 109.964C71.5644 109.226 72.4116 108.649 73.3777 108.236C74.3439 107.822 75.3917 107.615 76.5214 107.615C77.7699 107.615 78.9441 107.852 80.044 108.325C81.1587 108.797 82.0877 109.484 82.8309 110.385L80.9581 112.047C80.423 111.382 79.769 110.88 78.9961 110.54C78.2232 110.186 77.3983 110.008 76.5214 110.008C75.7633 110.008 75.0647 110.149 74.4256 110.429C73.7865 110.71 73.2291 111.109 72.7535 111.626C72.2927 112.128 71.9286 112.719 71.661 113.399C71.3935 114.078 71.2597 114.817 71.2597 115.614C71.2597 116.412 71.3935 117.158 71.661 117.852C71.9286 118.532 72.3001 119.123 72.7758 119.625C73.2663 120.127 73.8311 120.526 74.4702 120.821C75.1093 121.102 75.8153 121.242 76.5882 121.242C77.4206 121.242 78.1712 121.072 78.84 120.733C79.5089 120.378 80.0588 119.891 80.4899 119.27C80.9358 118.65 81.2108 117.956 81.3148 117.187H76.6774V114.905H84.1463V115.769C84.1463 116.892 83.9531 117.926 83.5666 118.871C83.195 119.817 82.6674 120.651 81.9837 121.375C81.2999 122.084 80.4973 122.638 79.5758 123.037C78.6542 123.421 77.6435 123.613 76.5436 123.613Z" fill="white"/>
<path d="M86.6254 123.369L92.7566 107.859H95.8556L101.898 123.369H99.0215L97.4162 119.027H91.0175L89.4123 123.369H86.6254ZM91.7979 116.944H96.6805L94.2281 110.385L91.7979 116.944Z" fill="white"/>
<path d="M105.625 123.369V107.859H112.603C113.659 107.859 114.573 108.066 115.346 108.48C116.133 108.878 116.743 109.44 117.174 110.164C117.605 110.887 117.82 111.729 117.82 112.69C117.82 113.605 117.605 114.425 117.174 115.149C116.743 115.873 116.133 116.441 115.346 116.855C114.573 117.254 113.659 117.453 112.603 117.453H108.3V123.369H105.625ZM108.3 115.282H112.18C113.131 115.282 113.859 115.046 114.365 114.573C114.87 114.085 115.123 113.45 115.123 112.667C115.123 111.899 114.87 111.279 114.365 110.806C113.859 110.333 113.139 110.097 112.202 110.097H108.3V115.282Z" fill="white"/>
<path d="M129.651 123.613C128.551 123.613 127.518 123.414 126.552 123.015C125.601 122.601 124.761 122.033 124.033 121.309C123.319 120.57 122.762 119.721 122.361 118.761C121.959 117.786 121.759 116.737 121.759 115.614C121.759 114.492 121.959 113.45 122.361 112.49C122.762 111.515 123.319 110.666 124.033 109.942C124.761 109.203 125.601 108.635 126.552 108.236C127.518 107.822 128.551 107.615 129.651 107.615C130.751 107.615 131.776 107.822 132.728 108.236C133.694 108.635 134.534 109.203 135.247 109.942C135.975 110.666 136.54 111.515 136.942 112.49C137.343 113.45 137.543 114.492 137.543 115.614C137.543 116.737 137.343 117.786 136.942 118.761C136.54 119.721 135.975 120.57 135.247 121.309C134.534 122.033 133.694 122.601 132.728 123.015C131.776 123.414 130.751 123.613 129.651 123.613ZM129.651 121.22C130.379 121.22 131.056 121.08 131.68 120.799C132.304 120.518 132.847 120.127 133.307 119.625C133.783 119.108 134.147 118.51 134.4 117.83C134.667 117.151 134.801 116.412 134.801 115.614C134.801 114.817 134.667 114.078 134.4 113.399C134.147 112.719 133.783 112.128 133.307 111.626C132.847 111.109 132.304 110.71 131.68 110.429C131.056 110.149 130.379 110.008 129.651 110.008C128.923 110.008 128.246 110.149 127.622 110.429C126.998 110.71 126.448 111.109 125.972 111.626C125.497 112.128 125.125 112.719 124.858 113.399C124.605 114.078 124.479 114.817 124.479 115.614C124.479 116.412 124.605 117.151 124.858 117.83C125.125 118.51 125.497 119.108 125.972 119.625C126.448 120.127 126.998 120.518 127.622 120.799C128.246 121.08 128.923 121.22 129.651 121.22Z" fill="white"/>
<path d="M142.28 123.369V107.859H149.214C150.239 107.859 151.146 108.059 151.934 108.457C152.722 108.856 153.331 109.41 153.762 110.119C154.208 110.814 154.431 111.626 154.431 112.557C154.431 113.561 154.148 114.44 153.584 115.193C153.034 115.932 152.283 116.471 151.332 116.811L154.632 123.369H151.666L148.656 117.165H144.955V123.369H142.28ZM144.955 115.038H148.969C149.801 115.038 150.47 114.817 150.975 114.373C151.48 113.916 151.733 113.317 151.733 112.579C151.733 111.825 151.48 111.227 150.975 110.784C150.47 110.326 149.801 110.097 148.969 110.097H144.955V115.038Z" fill="white"/>
<path d="M158.975 123.369V107.859H170.144V110.119H161.65V114.44H167.58V116.656H161.65V121.109H170.234V123.369H158.975Z" fill="white"/>
<path fill-rule="evenodd" clip-rule="evenodd" d="M374.416 3.29062H2.51621V174.789H372.531C373.572 174.789 374.416 173.945 374.416 172.904V3.29062ZM0.00341797 0.777832V177.302H372.531C374.96 177.302 376.928 175.333 376.928 172.904V0.777832H0.00341797Z" fill="white"/>
<path fill-rule="evenodd" clip-rule="evenodd" d="M92.1482 3.29062H2.51621V92.9227H92.1482V3.29062ZM0.00341797 0.777832V95.4355H94.661V0.777832H0.00341797Z" fill="white"/>
<path fill-rule="evenodd" clip-rule="evenodd" d="M374.416 3.29062H2.51621V92.9227H374.416V3.29062ZM0.00341797 0.777832V95.4355H376.928V0.777832H0.00341797Z" fill="white"/>
<path fill-rule="evenodd" clip-rule="evenodd" d="M372.901 95.5125H194.473V136.102H372.901V95.5125ZM191.96 92.9998V138.615H375.413V92.9998H191.96Z" fill="white"/>
<path d="M70.005 29.096C66.1675 25.282 61.2781 22.6847 55.9552 21.6324C50.6324 20.5802 45.115 21.1202 40.101 23.1842C35.0869 25.2482 30.8013 28.7436 27.7862 33.2282C24.771 37.7129 23.1616 42.9854 23.1616 48.379C23.1616 53.7727 24.771 59.0452 27.7862 63.5298C30.8013 68.0144 35.0869 71.5098 40.101 73.5738C45.115 75.6378 50.6324 76.1779 55.9552 75.1256C61.2781 74.0733 66.1675 71.476 70.005 67.662C75.1509 62.5478 78.0419 55.6115 78.0419 48.379C78.0419 41.1465 75.1509 34.2102 70.005 29.096ZM39.4642 66.0858C39.3191 64.17 39.7447 62.2541 40.688 60.5771C41.2368 59.5463 41.8295 58.5319 42.4003 57.5119C42.5085 57.3599 42.64 57.2255 42.7899 57.1138L45.7425 55.4775C47.1341 54.6574 48.7122 54.2012 50.3294 54.1516C51.9465 54.102 53.5499 54.4606 54.9898 55.1939C56.1972 55.7666 57.3387 56.4702 58.5076 57.1138C58.6318 57.2116 58.7855 57.2648 58.9439 57.2648C59.1023 57.2648 59.2561 57.2116 59.3802 57.1138C59.4962 56.9973 59.5656 56.843 59.5757 56.6795C59.5858 56.516 59.5358 56.3544 59.4351 56.2248L57.7887 53.2905C56.9231 51.8342 56.462 50.1758 56.4524 48.4846C56.4427 46.7933 56.8849 45.1298 57.7338 43.6639C58.2826 42.6331 58.8753 41.6186 59.4461 40.5987C59.5514 40.4674 59.6037 40.3019 59.593 40.1343C59.5823 39.9668 59.5093 39.8092 59.3881 39.6922C59.267 39.5752 59.1064 39.5071 58.9375 39.5013C58.7687 39.4955 58.6037 39.5522 58.4747 39.6606L55.5386 41.2968C54.1861 42.097 52.6552 42.5517 51.0827 42.6202C49.5102 42.6887 47.9451 42.369 46.5273 41.6895C45.2486 41.0841 44.0137 40.326 42.7954 39.6606C42.6688 39.56 42.5101 39.508 42.3482 39.5142C42.1863 39.5203 42.0319 39.5841 41.9134 39.6939C41.7949 39.8037 41.7201 39.9523 41.7027 40.1124C41.6853 40.2725 41.7264 40.4335 41.8185 40.566C42.4112 41.6132 43.0149 42.6495 43.5802 43.713C44.3671 45.0847 44.7959 46.6303 44.8275 48.2089C44.8591 49.7875 44.4926 51.3488 43.7613 52.7505C43.1796 53.9231 42.4936 55.0412 41.857 56.1975C41.7396 56.3522 41.6011 56.4899 41.4454 56.6065L38.5257 58.1937C36.8004 59.193 34.8088 59.644 32.8182 59.4863C30.0721 55.1423 29.0314 49.9455 29.8947 44.8876C30.7581 39.8297 33.465 35.2647 37.499 32.0637C41.5329 28.8628 46.6116 27.2499 51.7658 27.5329C56.92 27.8158 61.7889 29.9748 65.4436 33.5979C69.0982 37.221 71.2827 42.0545 71.5802 47.1762C71.8777 52.2979 70.2674 57.3491 67.0565 61.3661C63.8457 65.383 59.259 68.0845 54.1718 68.9551C49.0846 69.8256 43.853 68.8042 39.4752 66.0858H39.4642Z" fill="url(#paint0_linear_529_10972)"/>
<path d="M204.058 122.202V109.923L201.455 111.035V108.999L204.897 107.509H206.346V122.202H204.058Z" fill="white"/>
<path d="M209.258 122.202V120.543L215.282 114.247C215.645 113.869 215.925 113.526 216.121 113.218C216.331 112.91 216.478 112.617 216.562 112.337C216.66 112.043 216.709 111.742 216.709 111.434C216.709 110.818 216.457 110.308 215.953 109.902C215.45 109.496 214.813 109.293 214.043 109.293C213.372 109.293 212.742 109.426 212.154 109.692C211.567 109.958 210.923 110.42 210.223 111.077L208.922 109.503C209.734 108.762 210.566 108.209 211.42 107.845C212.273 107.467 213.162 107.278 214.085 107.278C215.051 107.278 215.897 107.453 216.625 107.803C217.353 108.139 217.919 108.608 218.325 109.209C218.731 109.811 218.934 110.511 218.934 111.308C218.934 111.784 218.871 112.232 218.745 112.652C218.619 113.071 218.402 113.498 218.094 113.932C217.8 114.366 217.388 114.862 216.856 115.422L212.175 120.25L219.207 120.229V122.202H209.258Z" fill="white"/>
<path d="M232.216 122.432C231.069 122.432 229.985 122.236 228.963 121.845C227.956 121.439 226.983 120.844 226.046 120.061L227.41 118.214C228.361 118.983 229.208 119.536 229.95 119.872C230.705 120.194 231.51 120.354 232.363 120.354C233.007 120.354 233.574 120.257 234.063 120.061C234.567 119.851 234.952 119.571 235.218 119.221C235.498 118.871 235.638 118.465 235.638 118.004C235.638 117.402 235.435 116.947 235.029 116.639C234.637 116.318 233.951 116.073 232.972 115.905L230.264 115.443C228.991 115.219 228.04 114.792 227.41 114.163C226.794 113.519 226.486 112.7 226.486 111.707C226.486 110.825 226.71 110.056 227.158 109.398C227.606 108.727 228.228 108.209 229.026 107.845C229.838 107.467 230.796 107.278 231.902 107.278C233.007 107.278 234.056 107.439 235.05 107.761C236.043 108.083 236.96 108.552 237.799 109.167L236.519 111.056C235.778 110.497 235.015 110.077 234.231 109.797C233.448 109.503 232.643 109.356 231.818 109.356C231.23 109.356 230.712 109.447 230.264 109.629C229.831 109.811 229.488 110.063 229.236 110.385C228.998 110.707 228.879 111.063 228.879 111.455C228.879 111.987 229.054 112.4 229.404 112.693C229.768 112.973 230.348 113.183 231.146 113.323L233.77 113.764C235.253 114.03 236.344 114.492 237.044 115.149C237.757 115.807 238.114 116.695 238.114 117.815C238.114 118.71 237.862 119.508 237.359 120.208C236.869 120.907 236.183 121.453 235.302 121.845C234.42 122.236 233.392 122.432 232.216 122.432Z" fill="white"/>
<path d="M241.004 122.202V107.509H251.519V109.65H243.523V113.743H249.106V115.842H243.523V120.061H251.603V122.202H241.004Z" fill="white"/>
<path d="M254.785 122.202V107.509H261.355C262.348 107.509 263.209 107.705 263.936 108.097C264.678 108.475 265.251 109.006 265.657 109.692C266.063 110.378 266.266 111.175 266.266 112.085C266.266 112.952 266.063 113.729 265.657 114.415C265.251 115.1 264.678 115.639 263.936 116.031C263.209 116.409 262.348 116.597 261.355 116.597H257.304V122.202H254.785ZM257.304 114.541H260.956C261.851 114.541 262.537 114.317 263.013 113.869C263.488 113.407 263.726 112.805 263.726 112.064C263.726 111.336 263.488 110.749 263.013 110.301C262.537 109.853 261.858 109.629 260.977 109.629H257.304V114.541Z" fill="white"/>
<path d="M272.833 122.202V109.692H267.922V107.509H280.264V109.692H275.352V122.202H272.833Z" fill="white"/>
<path d="M279.386 125.686L280.792 120.145H283.185L281.149 125.686H279.386Z" fill="white"/>
<path d="M292.914 122.202V109.923L290.311 111.035V108.999L293.753 107.509H295.202V122.202H292.914Z" fill="white"/>
<path d="M298.114 122.202V120.543L304.138 114.247C304.502 113.869 304.781 113.526 304.977 113.218C305.187 112.91 305.334 112.617 305.418 112.337C305.516 112.043 305.565 111.742 305.565 111.434C305.565 110.818 305.313 110.308 304.809 109.902C304.306 109.496 303.669 109.293 302.899 109.293C302.228 109.293 301.598 109.426 301.01 109.692C300.423 109.958 299.779 110.42 299.079 111.077L297.778 109.503C298.59 108.762 299.422 108.209 300.276 107.845C301.129 107.467 302.018 107.278 302.941 107.278C303.907 107.278 304.753 107.453 305.481 107.803C306.209 108.139 306.775 108.608 307.181 109.209C307.587 109.811 307.79 110.511 307.79 111.308C307.79 111.784 307.727 112.232 307.601 112.652C307.475 113.071 307.258 113.498 306.95 113.932C306.656 114.366 306.244 114.862 305.712 115.422L301.031 120.25L308.063 120.229V122.202H298.114Z" fill="white"/>
<path d="M310.524 117.248V115.233H317.849V117.248H310.524Z" fill="white"/>
<path d="M326.515 122.411C325.312 122.411 324.255 122.111 323.346 121.509C322.436 120.907 321.723 120.068 321.205 118.99C320.687 117.913 320.428 116.66 320.428 115.233C320.428 113.638 320.715 112.246 321.289 111.056C321.862 109.867 322.66 108.943 323.682 108.286C324.717 107.614 325.913 107.278 327.271 107.278C327.984 107.278 328.691 107.39 329.391 107.614C330.09 107.838 330.685 108.146 331.175 108.538L329.915 110.238C329.495 109.93 329.055 109.706 328.593 109.566C328.131 109.412 327.627 109.335 327.082 109.335C326.172 109.335 325.389 109.566 324.731 110.028C324.087 110.49 323.591 111.161 323.241 112.043C322.905 112.91 322.73 113.967 322.716 115.212C323.22 114.527 323.828 113.995 324.542 113.617C325.256 113.239 325.997 113.05 326.767 113.05C327.732 113.05 328.586 113.246 329.328 113.638C330.069 114.016 330.65 114.548 331.07 115.233C331.489 115.905 331.699 116.681 331.699 117.563C331.699 118.486 331.475 119.319 331.028 120.061C330.58 120.788 329.964 121.362 329.181 121.782C328.397 122.202 327.509 122.411 326.515 122.411ZM326.41 114.855C325.724 114.855 325.067 115.016 324.437 115.338C323.821 115.646 323.283 116.073 322.821 116.618C322.947 117.388 323.171 118.06 323.493 118.633C323.828 119.207 324.248 119.655 324.752 119.977C325.256 120.285 325.815 120.438 326.431 120.438C327.005 120.438 327.516 120.319 327.963 120.082C328.411 119.83 328.768 119.494 329.034 119.074C329.3 118.64 329.433 118.151 329.433 117.605C329.433 117.073 329.3 116.604 329.034 116.199C328.782 115.779 328.432 115.45 327.984 115.212C327.537 114.974 327.012 114.855 326.41 114.855Z" fill="white"/>
<path d="M334.759 122.202V107.509H341.328C342.322 107.509 343.182 107.705 343.91 108.097C344.652 108.475 345.225 109.006 345.631 109.692C346.037 110.378 346.24 111.175 346.24 112.085C346.24 112.952 346.037 113.729 345.631 114.415C345.225 115.1 344.652 115.639 343.91 116.031C343.182 116.409 342.322 116.597 341.328 116.597H337.278V122.202H334.759ZM337.278 114.541H340.93C341.825 114.541 342.511 114.317 342.987 113.869C343.462 113.407 343.7 112.805 343.7 112.064C343.7 111.336 343.462 110.749 342.987 110.301C342.511 109.853 341.832 109.629 340.951 109.629H337.278V114.541Z" fill="white"/>
<path d="M349.339 122.202V107.509H352.614L356.916 116.43L361.198 107.509H364.472V122.202H362.101V110.7L356.895 121.152L351.669 110.637V122.202H349.339Z" fill="white"/>
<defs>
<linearGradient id="paint0_linear_529_10972" x1="23.1616" y1="48.379" x2="78.0419" y2="48.379" gradientUnits="userSpaceOnUse">
<stop stop-color="#00FFEC"/>
<stop offset="0.505208" stop-color="#33A6FF"/>
<stop offset="1" stop-color="#FF8AD3"/>
</linearGradient>
</defs>
</svg>
