<svg width="65" height="59" viewBox="0 0 65 59" fill="none" xmlns="http://www.w3.org/2000/svg">
<path d="M64.6732 51.6992L57.9366 31.6466C57.2359 29.5688 55.2935 28.1795 53.1053 28.1795H43.2461C45.8892 23.3845 48.0405 18.5035 48.0405 15.3069C48.0405 6.87274 41.1809 0 32.7354 0C24.2899 0 17.4303 6.86044 17.4303 15.3069C17.4303 18.5035 19.5816 23.3845 22.2247 28.1795H12.3655C10.1773 28.1795 8.23496 29.5811 7.53425 31.6466L0.797571 51.6992C0.281255 53.2484 0.53941 54.9696 1.48599 56.2975C2.44486 57.6253 3.99381 58.4245 5.62881 58.4245H59.8543C61.4893 58.4245 63.0383 57.6253 63.9971 56.2975C64.9314 54.9696 65.1896 53.2484 64.6732 51.6992ZM32.7354 8.45875C36.5094 8.45875 39.5828 11.5324 39.5828 15.3069C39.5828 19.0814 36.5094 22.1551 32.7354 22.1551C28.9614 22.1551 25.8881 19.0814 25.8881 15.3069C25.8881 11.5201 28.9614 8.45875 32.7354 8.45875ZM60.4444 53.7524C60.3583 53.8631 60.1739 54.0598 59.842 54.0598H5.6165C5.28459 54.0598 5.1002 53.8631 5.01415 53.7524C4.92809 53.6418 4.80514 53.3959 4.91578 53.0762L11.6525 33.0236C11.7508 32.7162 12.0336 32.5195 12.3532 32.5195H24.4129C24.5235 32.5195 24.6218 32.5072 24.7202 32.4949C28.1746 38.1628 31.6044 42.8717 31.8995 43.2528C32.0962 43.511 32.3912 43.6708 32.7231 43.6708C33.0427 43.6708 33.35 43.511 33.5467 43.2528C33.8295 42.8594 37.2716 38.1628 40.7137 32.4949C40.7875 32.5072 40.8735 32.5072 40.9473 32.5072H53.093C53.4126 32.5072 53.6954 32.7162 53.7938 33.0113L60.5304 53.0639C60.6534 53.3959 60.5304 53.6418 60.4444 53.7524Z" fill="#AAAAAA"/>
</svg>
