<svg width="57" height="59" viewBox="0 0 57 59" fill="none" xmlns="http://www.w3.org/2000/svg">
<path d="M51.8876 58.4222H5.0348C2.25696 58.4222 0 56.1649 0 53.3867V5.03537C0 2.25722 2.25696 0 5.0348 0H51.8876C54.6655 0 56.9225 2.25722 56.9225 5.03537V53.3867C56.9225 56.1649 54.6655 58.4222 51.8876 58.4222ZM5.0348 4.09774C4.51396 4.09774 4.09728 4.51446 4.09728 5.03537V53.3867C4.09728 53.9076 4.51396 54.3244 5.0348 54.3244H51.8876C52.4085 54.3244 52.8251 53.9076 52.8251 53.3867V5.03537C52.8251 4.51446 52.4085 4.09774 51.8876 4.09774H5.0348Z" fill="#A9A9A9"/>
<path d="M36.9574 26.4731V34.9349H46.0548V26.311H36.9458C36.9458 26.3573 36.9574 26.4152 36.9574 26.4731Z" fill="#A9A9A9"/>
<path d="M24.0625 26.311C24.0625 26.3689 24.0741 26.4152 24.0741 26.4731V34.9349H32.859V26.4731C32.859 26.4152 32.859 26.3689 32.8705 26.311H24.0625Z" fill="#A9A9A9"/>
<path d="M24.0629 39.0326V47.4944C24.0629 47.5522 24.0628 47.5985 24.0513 47.6564H32.8593C32.8593 47.5985 32.8478 47.5522 32.8478 47.4944V39.0326H24.0629Z" fill="#A9A9A9"/>
<path d="M36.9574 39.0326V47.4944C36.9574 47.5522 36.9574 47.5985 36.9458 47.6564H46.0548V39.0326H36.9574Z" fill="#A9A9A9"/>
<path d="M19.9656 34.9349V26.4731C19.9656 26.4152 19.9656 26.3689 19.9772 26.311H10.8682V34.9349H19.9656Z" fill="#A9A9A9"/>
<path d="M19.9661 47.4944V39.0326H10.8687V47.6564H19.9777C19.9777 47.6101 19.9661 47.5522 19.9661 47.4944Z" fill="#A9A9A9"/>
<path d="M2.92822 2.91772V16.8547H12.7085V12.3518C12.7085 10.2219 14.4331 8.49718 16.5628 8.49718H16.6091C18.7387 8.49718 20.4633 10.2219 20.4633 12.3518V16.8547H36.4706V12.3518C36.4706 10.2219 38.1952 8.49718 40.3248 8.49718C42.4545 8.49718 44.1907 10.2219 44.1907 12.3518V16.8547H54.0057V2.91772H2.92822Z" fill="#A9A9A9"/>
</svg>
